<svg height='100px'
     width='100px'
     xmlns="http://www.w3.org/2000/svg"
     data-name="Layer 2"
     viewBox="0 0 16 16"
     x="0px"
     y="0px">
    <path d="M8,.5a7.5,7.5,0,1,0,2.666,14.5107,5.9819,5.9819,0,0,0,1.2022.4717,6.15,6.15,0,0,0,1.62.2158,6.3952,6.3952,0,0,0,1.6406-.2153.5.5,0,0,0,.1563-.8935,7.4041,7.4041,0,0,1-1.68-1.6065A7.5,7.5,0,0,0,8,.5Zm4.6064,12.085a.533.533,0,0,0-.0595.6338c.0058.0092.0332.0537.042.0659a8.3812,8.3812,0,0,0,1.2226,1.4038,5.1784,5.1784,0,0,1-1.6806-.1709,5.05,5.05,0,0,1-1.1856-.4932.5036.5036,0,0,0-.44-.0264,6.504,6.504,0,1,1,2.1015-1.413Zm.4073.4052L13,13l.0127-.0107Z"/>
    <path d="M11.5,8a.5.5,0,0,0,1,0A4.505,4.505,0,0,0,8,3.5a.5.5,0,0,0,0,1A3.5042,3.5042,0,0,1,11.5,8Z"/>
</svg>
