<svg
    height='100px'
    width='100px'
    xmlns="http://www.w3.org/2000/svg"
    viewBox="0 0 64 64"
    x="0px"
    y="0px">
    <path d="M62,3a1,1,0,0,0,0-.15,1,1,0,0,0,0-.14v0l0-.08-.08-.13-.1-.11-.11-.1-.13-.08-.08,0h0L61.2,2,61,2H3A1,1,0,0,0,2,3V61s0,0,0,0a1.55,1.55,0,0,0,.06.29v0l0,.08.08.13.1.11.11.1.13.08.08,0h0A1,1,0,0,0,3,62H61a1,1,0,0,0,1-1V3S62,3,62,3ZM55.55,50.24A12,12,0,1,1,43,31.39,1,1,0,0,1,44,33a10,10,0,0,0,10.47,15.7,1,1,0,0,1,1,1.57ZM4,58.59V4H58.59Z" />
    <circle cx="20" cy="20" r="5" />
    <path d="M20,13a1,1,0,0,1-1-1V9a1,1,0,0,1,2,0v3A1,1,0,0,1,20,13Z" />
    <path d="M14.34,15.34a1,1,0,0,1-.71-.29l-2.12-2.12a1,1,0,0,1,1.41-1.41l2.12,2.12a1,1,0,0,1-.71,1.71Z" />
    <path d="M12,21H9a1,1,0,0,1,0-2h3a1,1,0,0,1,0,2Z" />
    <path d="M12.22,28.78a1,1,0,0,1-.71-1.71L13.64,25a1,1,0,0,1,1.41,1.41l-2.12,2.12A1,1,0,0,1,12.22,28.78Z" />
    <path d="M20,32a1,1,0,0,1-1-1V28a1,1,0,0,1,2,0v3A1,1,0,0,1,20,32Z" />
    <path d="M27.78,28.78a1,1,0,0,1-.71-.29l-2.12-2.12A1,1,0,0,1,26.36,25l2.12,2.12a1,1,0,0,1-.71,1.71Z" />
    <path d="M31,21H28a1,1,0,0,1,0-2h3a1,1,0,0,1,0,2Z" />
    <path d="M25.66,15.34a1,1,0,0,1-.71-1.71l2.12-2.12a1,1,0,0,1,1.41,1.41L26.36,15A1,1,0,0,1,25.66,15.34Z" />
</svg>
