<svg height='100px' width='100px'
     xmlns="http://www.w3.org/2000/svg"
     version="1.1"
     x="0px"
     y="0px"
     viewBox="0 0 100 100"
     style="enable-background:new 0 0 100 100;"
     xml:space="preserve"
>
    <path d="M86.2,44c-0.6-1.6-1.7-3-3.3-3.9c0.8-2.2,2.1-6,2.8-10.3c1.6-9,0.3-15.9-3.9-20.1  c-7.7-7.8-24.6-6.1-50.4,4.8c-8.5-1-14.2,0.5-16.7,4.4c-3.7,5.7,0,14.9,3.3,21c-1.5,0.8-2.7,2.1-3.4,3.7c-0.7,1.6-1.1,4.2,0.6,7.8  l0.1,0.1l0.1,0.1c0,0,2.2,3.4,2.4,8.1c0.2,4.1,1.8,5.9,3.1,6.7c0.9,0.6,2,0.8,3.1,0.7c0.3,2.8,1,7.4,2.1,10.4  c0.9,2.7,3.9,6.8,7.4,10.3c3.1,3.1,7.9,6.8,12.7,7l8.2,0l0,0c4.8-0.2,9.6-3.9,12.7-7c3.5-3.5,6.5-7.6,7.4-10.3c1-3,1.7-7.6,2.1-10.4  c1.1,0.1,2.2-0.2,3.1-0.7c1.3-0.8,3-2.6,3.1-6.7c0.2-4.7,2.4-8.1,2.4-8.1l0.1-0.1l0.1-0.1C87.1,48.1,86.8,45.6,86.2,44z M81.6,49.5  c-0.5,0.9-2.8,4.8-3,10.2c-0.1,2.4-0.8,3-1,3.1c-0.4,0.2-1.1,0.1-1.8-0.2L73,61.2l-0.3,3.1c0,0.1-0.7,7.9-2.1,11.9  c-1.3,3.9-10.1,14-16.1,14.3h-8c-6-0.3-14.8-10.5-16.1-14.3c-1.4-4.1-2.1-11.8-2.1-11.9l-0.3-3.1L25,62.6c-0.7,0.4-1.4,0.4-1.8,0.2  c-0.2-0.1-0.9-0.7-1-3.1c-0.2-5.4-2.5-9.4-3-10.2c-0.7-1.6-0.9-3-0.4-4.1c0.5-1.1,1.4-1.6,2-1.8c1.2-0.4,2.6-0.3,3.6,0.3  c1,0.6,1.6,1.7,1.7,3.1l4.3-0.5c-0.1-0.5-0.1-1-0.3-1.5c1.1-0.9,2.7-2.4,4.2-4.3c2.3-3,3.4-6.2,3.5-9.4c1.5,2.4,3.8,5.5,6.8,8.3  c4.3,4,10.9,8.1,19.7,8.1c2.5,0,5.1-0.3,7.9-1l2.6,0.3c0.2-1.5,0.8-2.6,1.8-3.2c1.1-0.6,2.6-0.7,3.8-0.1c0.6,0.3,1.3,0.8,1.7,1.8  C82.5,46.6,82.3,47.9,81.6,49.5z" />
</svg>
