<svg
     height='100px'
     width='100px'
     xmlns="http://www.w3.org/2000/svg"
     viewBox="0 0 96.000001 96.000002"
     version="1.1"
     x="0px"
     y="0px">
    <g transform="translate(0,-956.36216)">
        <path style="color:#000000;font-style:normal;font-variant:normal;font-weight:normal;font-stretch:normal;font-size:medium;line-height:normal;font-family:sans-serif;text-indent:0;text-align:start;text-decoration:none;text-decoration-line:none;text-decoration-style:solid;text-decoration-color:#000000;letter-spacing:normal;word-spacing:normal;text-transform:none;direction:ltr;block-progression:tb;writing-mode:lr-tb;baseline-shift:baseline;text-anchor:start;white-space:normal;clip-rule:nonzero;display:inline;overflow:visible;visibility:visible;opacity:1;isolation:auto;mix-blend-mode:normal;color-interpolation:sRGB;color-interpolation-filters:linearRGB;solid-color:#000000;solid-opacity:1;fill:#000000;fill-opacity:1;fill-rule:nonzero;stroke:none;stroke-width:4;stroke-linecap:round;stroke-linejoin:miter;stroke-miterlimit:10;stroke-dasharray:none;stroke-dashoffset:0;stroke-opacity:1;color-rendering:auto;image-rendering:auto;shape-rendering:auto;text-rendering:auto;enable-background:accumulate"
              d="m 47.576172,976.27734 c -9.503964,0 -17.017651,3.06609 -22.017578,8.66211 -4.999927,5.59602 -7.410141,13.52942 -7.410156,22.95315 -1.7e-5,9.8114 5.161424,17.0343 6.96875,23.7793 1.100209,4.1061 4.696209,8.4078 8.933593,12.0469 4.237385,3.639 9.022034,6.5957 13.525391,6.5957 4.391047,0 9.144889,-2.7971 13.392578,-6.3692 4.247689,-3.5721 7.903783,-7.9344 9.066406,-12.2734 1.807315,-6.745 6.968768,-13.9679 6.96875,-23.7793 -1.5e-5,-9.42373 -2.408276,-17.35713 -7.408203,-22.95315 -4.999926,-5.59602 -12.515568,-8.66211 -22.019531,-8.66211 z m 0,4 c 8.663838,0 14.862931,2.65849 19.035156,7.32813 4.172225,4.66964 6.392564,11.54302 6.392578,20.28713 1.5e-5,8.3564 -4.749477,14.9719 -6.832031,22.7441 -0.752592,2.8087 -3.946899,7.0268 -7.777344,10.2481 -3.830444,3.2212 -8.383043,5.4297 -10.818359,5.4297 -2.484261,0 -7.081393,-2.3344 -10.919922,-5.6309 -3.838529,-3.2965 -7.013148,-7.5739 -7.675781,-10.0469 -2.082564,-7.7722 -6.832045,-14.3877 -6.832031,-22.7441 1.4e-5,-8.74411 2.220352,-15.61749 6.392578,-20.28713 4.172225,-4.66964 10.371317,-7.32813 19.035156,-7.32813 z"/>
        <path style="opacity:1;fill:#000000;fill-opacity:1;stroke:none;stroke-width:8;stroke-linecap:round;stroke-linejoin:miter;stroke-miterlimit:10;stroke-dasharray:none;stroke-opacity:1"
              d="m 47.411014,958.22255 c -20.851669,0 -40.1469103,20.37345 -40.1469103,40.54099 -5.8707866,21.91006 2.5041427,39.70226 13.4037303,36.78166 24.0633,6.4479 -7.014153,-9.5783 -0.09228,-29.2173 -4.540505,-13.68457 9.294841,10.0441 26.023429,-18.93075 10.298102,-17.83674 33.148836,7.79458 29.250746,18.28565 3.11499,26.302 -29.020693,36.4441 -2.290789,29.2819 10.841993,0.6585 19.513381,-15.6891 16.507497,-36.20116 0,-20.85163 -21.803755,-40.54099 -42.655423,-40.54099 z"/>
    </g>
</svg>
